<svg width="96" height="70" viewBox="0 0 96 70" fill="none" xmlns="http://www.w3.org/2000/svg">
<path d="M46.1407 34.1982C39.443 20.6168 22.1407 -3.86691 6.51281 6.84937C-9.11509 17.5657 22.6234 45.5116 28.7629 47.7441C34.9024 49.9767 38.1843 43.9268 31.6291 37.547C23.1815 29.3255 12.6524 62.1052 24.3733 67.6866C33.75 72.1517 48.2978 48.3023 48.9314 43.6866C49.565 39.0709 46.1407 34.1982 46.1407 34.1982Z" stroke="black" stroke-width="3"/>
<path d="M49.7528 31.9657C56.4505 18.3843 73.7528 -6.09939 89.3807 4.61689C105.009 15.3332 73.2702 43.2791 67.1307 45.5116C60.9911 47.7442 57.7093 41.6943 64.2645 35.3145C72.712 27.093 83.2412 59.8727 71.5203 65.4541C62.1435 69.9192 47.5958 46.0698 46.9621 41.4541C46.3285 36.8384 49.7528 31.9657 49.7528 31.9657Z" stroke="black" stroke-width="3"/>
</svg>
