<svg width="69" height="73" viewBox="0 0 69 73" fill="none" xmlns="http://www.w3.org/2000/svg">
<path d="M18.0892 33.4854L22.7733 38.0926C23.1401 38.4533 23.6185 38.6444 24.1098 38.6444C24.3307 38.6444 24.5541 38.6057 24.7714 38.5267C25.4721 38.2717 25.9516 37.6521 26.0228 36.9099L26.6496 30.37C26.6534 30.3285 26.6752 30.2906 26.709 30.2659C31.0132 27.1208 33.5828 22.0648 33.5828 16.7412C33.5828 12.2255 31.812 7.9922 28.5963 4.82112C25.3813 1.65061 21.1295 -0.0608989 16.6038 0.00197801C12.2415 0.0627163 8.12694 1.8083 5.01788 4.91736C1.90883 8.02642 0.163241 12.1411 0.102503 16.5033C0.039626 21.0218 1.75113 25.2808 4.92164 28.4958C8.09272 31.7113 12.3262 33.4822 16.8417 33.4822C17.2201 33.4822 17.603 33.4693 17.9794 33.4441C18.0204 33.4415 18.0595 33.4562 18.0892 33.4854ZM16.8419 31.3432C12.903 31.3432 9.21054 29.7985 6.44438 26.9937C3.67893 24.1895 2.18614 20.4743 2.24103 16.5326C2.29379 12.7304 3.81723 9.14223 6.53007 6.42926C9.24304 3.71628 12.8312 2.19312 16.6334 2.14008C20.5723 2.08704 24.2903 3.57798 27.0945 6.34357C29.8993 9.10958 31.444 12.8021 31.444 16.7409C31.444 21.3846 29.2021 25.7949 25.4469 28.539C24.9204 28.9239 24.5826 29.5168 24.5204 30.1658L23.9383 36.2389L19.5885 31.9607C19.1601 31.5394 18.5838 31.3049 17.9879 31.3049C17.9375 31.3049 17.8867 31.3066 17.8359 31.31C17.5073 31.3319 17.1727 31.3432 16.8419 31.3432Z" fill="black"/>
<path d="M68.7398 55.0426L63.4744 25.5628C63.0616 23.2553 61.0611 21.5806 58.7176 21.5806H55.3787C54.8209 20.6189 54.0585 19.791 53.1505 19.1564L54.4272 15.6502C54.7697 14.7091 54.2822 13.6644 53.3405 13.3215L51.5162 12.6574L53.525 7.13801C53.8678 6.19671 53.3834 5.15717 52.4417 4.81441L48.5622 3.40246C47.6206 3.05985 46.5813 3.54433 46.2387 4.48591L44.2298 10.0051L42.4048 9.34084C41.4646 8.99866 40.4212 9.48499 40.0773 10.4261L32.0301 32.5346C31.6879 33.476 32.1748 34.5206 33.1157 34.8632L33.3605 34.9523L32.4247 37.5231C32.2529 37.9955 32.2752 38.5063 32.4875 38.9619C32.6999 39.4174 33.077 39.763 33.5492 39.9348L40.4594 42.4499C40.6696 42.5263 40.8872 42.5644 41.1042 42.5644C41.3751 42.5644 41.6453 42.5051 41.8982 42.3872C42.3537 42.1747 42.6992 41.7976 42.8711 41.3254L43.8073 38.7533L44.0511 38.842C44.2542 38.9161 44.4645 38.953 44.6743 38.953C45.3991 38.953 46.1064 38.5088 46.3796 37.7572L48.1431 32.9146C51.2301 33.1895 54.0701 31.5796 55.4853 28.9714C55.7417 29.1132 55.9158 29.386 55.9158 29.6992V37.9302C55.9158 38.5207 56.3944 38.9995 56.9851 38.9995C57.5758 38.9995 58.0544 38.5207 58.0544 37.9302V29.699C58.0544 28.4668 57.2998 27.4079 56.2286 26.9589C56.3385 26.4459 56.3978 25.9146 56.3978 25.3692C56.3978 24.8024 56.3332 24.2508 56.2147 23.7193H58.7174C60.0237 23.7193 61.139 24.6529 61.3691 25.9391L66.6345 55.4185C67.0535 57.7657 66.4162 60.1604 64.8853 61.9888C63.3545 63.8172 61.109 64.8661 58.7247 64.8661C57.6742 64.8661 32.2067 64.8658 31.1571 64.8658V56.2121C31.5968 56.2121 49.1292 56.2117 53.1569 56.2117C55.8574 56.2117 58.0546 54.0147 58.0546 51.3141V42.9206C58.0546 42.33 57.5759 41.8512 56.9852 41.8512C56.3945 41.8512 55.9159 42.33 55.9159 42.9206V51.3141C55.9159 52.8354 54.6782 54.073 53.1569 54.073H51.1745V50.2669C51.1745 49.2841 50.375 48.4847 49.3922 48.4847H26.2952C25.3124 48.4847 24.5129 49.2841 24.5129 50.2669V54.43C24.5129 55.4128 25.3124 56.2123 26.2952 56.2123H29.0185V64.8659H19.4404C18.4576 64.8659 17.6582 65.6653 17.6582 66.6481V71.2178C17.6582 72.2006 18.4576 73 19.4404 73H27.5925C28.1832 73 28.6618 72.5212 28.6618 71.9307C28.6618 71.3401 28.1832 70.8613 27.5925 70.8613H19.7969V67.0043C23.3359 67.0043 52.7197 67.0046 55.8905 67.0046V70.8613H32.5827C31.992 70.8613 31.5134 71.3401 31.5134 71.9307C31.5134 72.5212 31.992 73 32.5827 73H56.2471C57.2299 73 58.0293 72.2006 58.0293 71.2178V67.0046H58.7248C61.7438 67.0046 64.5869 65.6768 66.5253 63.3616C68.4633 61.0467 69.2705 58.0145 68.7398 55.0426ZM48.1368 5.5236L51.4039 6.71256L49.5063 11.9258L46.2394 10.7365L48.1368 5.5236ZM40.9495 40.3522L34.5223 38.0129L35.3703 35.6833L41.7977 38.0219L40.9495 40.3522ZM44.4806 36.7221C42.6087 36.041 35.4229 33.4266 34.1498 32.9635L41.9766 11.4608C42.9337 11.8093 52.3073 15.2213 52.3073 15.2213L51.2275 18.1864C50.4708 17.9322 49.6621 17.7923 48.8208 17.7923C44.6428 17.7923 41.2438 21.1914 41.2438 25.3693C41.2438 28.5686 43.238 31.3093 46.0478 32.4185L44.4806 36.7221ZM48.8209 30.8077C45.8222 30.8077 43.3826 28.368 43.3826 25.3693C43.3826 22.3706 45.8221 19.931 48.8209 19.931C51.8198 19.931 54.2594 22.3706 54.2594 25.3693C54.2594 28.368 51.8196 30.8077 48.8209 30.8077ZM26.6516 50.6231H49.0358V54.0727C48.913 54.0727 30.1707 54.0732 26.6516 54.0732V50.6231Z" fill="black"/>
<path d="M48.8208 22.1307C47.0351 22.1307 45.5823 23.5834 45.5823 25.3692C45.5823 27.155 47.035 28.6077 48.8208 28.6077C50.6066 28.6077 52.0595 27.155 52.0595 25.3692C52.0595 23.5834 50.6066 22.1307 48.8208 22.1307ZM48.8208 26.4692C48.2143 26.4692 47.721 25.9759 47.721 25.3693C47.721 24.7628 48.2143 24.2695 48.8208 24.2695C49.4273 24.2695 49.9208 24.7628 49.9208 25.3693C49.9208 25.9759 49.4273 26.4692 48.8208 26.4692Z" fill="black"/>
<path d="M23.4891 15.7031C25.3305 15.7031 26.8286 14.205 26.8286 12.3636C26.8286 10.5222 25.3305 9.02417 23.4891 9.02417C21.6477 9.02417 20.1497 10.5222 20.1497 12.3636C20.1497 14.205 21.6477 15.7031 23.4891 15.7031ZM23.4891 11.1628C24.1513 11.1628 24.6899 11.7015 24.6899 12.3636C24.6899 13.0258 24.1513 13.5644 23.4891 13.5644C22.827 13.5644 22.2883 13.0258 22.2883 12.3636C22.2883 11.7015 22.827 11.1628 23.4891 11.1628Z" fill="black"/>
<path d="M9.18004 13.252C7.33864 13.252 5.84058 14.7501 5.84058 16.5915C5.84058 18.4329 7.33864 19.931 9.18004 19.931C11.0214 19.931 12.5196 18.4329 12.5196 16.5915C12.5196 14.7501 11.0214 13.252 9.18004 13.252ZM9.18004 17.7923C8.51791 17.7923 7.97925 17.2536 7.97925 16.5915C7.97925 15.9294 8.51791 15.3907 9.18004 15.3907C9.84231 15.3907 10.381 15.9294 10.381 16.5915C10.381 17.2536 9.84231 17.7923 9.18004 17.7923Z" fill="black"/>
<path d="M25.6408 20.2654L24.0118 21.8942C23.5941 22.3118 23.5941 22.9887 24.0117 23.4064C24.2206 23.6152 24.4942 23.7196 24.7679 23.7196C25.0415 23.7196 25.3153 23.6152 25.524 23.4064L27.153 21.7775C27.5707 21.3599 27.5707 20.683 27.1531 20.2654C26.7355 19.8477 26.0582 19.8477 25.6408 20.2654Z" fill="black"/>
<path d="M15.0272 7.25882C14.6097 6.84106 13.9326 6.84121 13.515 7.25882L11.8862 8.88763C11.4686 9.30524 11.4686 9.98235 11.8863 10.3998C12.0951 10.6087 12.3688 10.7131 12.6424 10.7131C12.916 10.7131 13.1898 10.6087 13.3987 10.3998L15.0275 8.771C15.4449 8.35339 15.4449 7.67643 15.0272 7.25882Z" fill="black"/>
<path d="M18.4123 16.1782L16.7835 14.5494C16.3659 14.1318 15.6888 14.1318 15.2713 14.5494C14.8536 14.967 14.8536 15.644 15.2712 16.0616L16.9 17.6904C17.1089 17.8993 17.3825 18.0036 17.6562 18.0036C17.9299 18.0036 18.2036 17.8993 18.4123 17.6904C18.83 17.2729 18.83 16.5958 18.4123 16.1782Z" fill="black"/>
<path d="M15.4396 23.0781L13.8107 24.7069C13.3931 25.1245 13.3931 25.8016 13.8109 26.2191C14.0196 26.428 14.2934 26.5324 14.567 26.5324C14.8406 26.5324 15.1143 26.428 15.3232 26.2191L16.952 24.5903C17.3697 24.1727 17.3696 23.4956 16.9519 23.0781C16.5343 22.6604 15.8572 22.6605 15.4396 23.0781Z" fill="black"/>
</svg>
