<svg width="58" height="58" viewBox="0 0 58 58" fill="none" xmlns="http://www.w3.org/2000/svg">
<g clip-path="url(#clip0_1_876)">
<path d="M45.8383 35.929C44.6509 34.6926 43.2187 34.0316 41.7008 34.0316C40.1951 34.0316 38.7506 34.6803 37.5142 35.9167L33.646 39.7727C33.3277 39.6013 33.0095 39.4422 32.7034 39.2831C32.2627 39.0627 31.8465 38.8546 31.4915 38.6343C27.8681 36.3329 24.5752 33.3338 21.4169 29.4533C19.8868 27.5192 18.8585 25.8911 18.1118 24.2385C19.1156 23.3204 20.0459 22.3656 20.9518 21.4475C21.2945 21.1047 21.6373 20.7497 21.98 20.407C24.5507 17.8363 24.5507 14.5067 21.98 11.936L18.6382 8.59413C18.2587 8.21465 17.867 7.82293 17.4997 7.43121C16.7653 6.67225 15.9941 5.88881 15.1984 5.15433C14.011 3.97916 12.591 3.35486 11.0975 3.35486C9.60409 3.35486 8.15962 3.97916 6.93549 5.15433C6.92325 5.16657 6.92325 5.16657 6.91101 5.17881L2.74897 9.37758C1.18208 10.9445 0.288468 12.8541 0.0926074 15.0698C-0.201184 18.6442 0.851568 21.9739 1.65949 24.1528C3.64258 29.5023 6.60498 34.46 11.0241 39.7727C16.3858 46.1749 22.8369 51.2306 30.2062 54.7928C33.0217 56.1271 36.7798 57.7062 40.9785 57.9755C41.2356 57.9878 41.5049 58 41.7497 58C44.5775 58 46.9523 56.984 48.813 54.9642C48.8252 54.9397 48.8497 54.9274 48.8619 54.903C49.4985 54.1318 50.233 53.434 51.0042 52.6873C51.5305 52.1854 52.0691 51.659 52.5955 51.1082C53.8074 49.8473 54.444 48.3784 54.444 46.8727C54.444 45.3548 53.7952 43.898 52.5588 42.6739L45.8383 35.929ZM50.2207 48.819C50.2085 48.819 50.2085 48.8313 50.2207 48.819C49.7433 49.3332 49.2537 49.7983 48.7273 50.3125C47.9316 51.0714 47.1237 51.8671 46.3647 52.7607C45.1283 54.0828 43.6716 54.7071 41.762 54.7071C41.5784 54.7071 41.3825 54.7071 41.1989 54.6949C37.5632 54.4623 34.1846 53.0423 31.6507 51.8304C24.7221 48.4763 18.6382 43.7144 13.5825 37.6795C9.40823 32.6483 6.61722 27.9966 4.76878 23.0021C3.63034 19.9541 3.21414 17.5792 3.39776 15.3391C3.52017 13.9069 4.07103 12.7195 5.08706 11.7034L9.26134 7.52914C9.86116 6.96604 10.4977 6.66001 11.122 6.66001C11.8932 6.66001 12.5175 7.12518 12.9092 7.5169C12.9215 7.52914 12.9337 7.54138 12.946 7.55362C13.6927 8.25138 14.4027 8.97361 15.1494 9.74482C15.5289 10.1365 15.9206 10.5283 16.3123 10.9322L19.6542 14.2741C20.9518 15.5717 20.9518 16.7713 19.6542 18.0689C19.2992 18.4239 18.9564 18.7789 18.6014 19.1216C17.5732 20.1744 16.5939 21.1537 15.5289 22.1085C15.5044 22.133 15.4799 22.1453 15.4677 22.1697C14.4149 23.2225 14.6108 24.2508 14.8311 24.9485C14.8434 24.9852 14.8556 25.022 14.8679 25.0587C15.737 27.1642 16.9611 29.1473 18.8218 31.5098L18.834 31.5221C22.2126 35.6841 25.7748 38.9281 29.7043 41.4131C30.2062 41.7313 30.7203 41.9884 31.21 42.2332C31.6507 42.4536 32.0669 42.6617 32.4219 42.882C32.4708 42.9065 32.5198 42.9432 32.5688 42.9677C32.985 43.1758 33.3767 43.2737 33.7807 43.2737C34.7967 43.2737 35.4332 42.6372 35.6413 42.4291L39.8279 38.2426C40.2441 37.8264 40.9051 37.3245 41.6763 37.3245C42.4352 37.3245 43.0596 37.8019 43.439 38.2181C43.4513 38.2303 43.4513 38.2303 43.4635 38.2426L50.2085 44.9875C51.4693 46.2361 51.4693 47.5215 50.2207 48.819Z" fill="black"/>
<path d="M31.3447 13.7966C34.5519 14.3352 37.4653 15.8532 39.7912 18.179C42.117 20.5048 43.6227 23.4183 44.1735 26.6255C44.3082 27.4334 45.0059 27.9965 45.8016 27.9965C45.8996 27.9965 45.9852 27.9843 46.0832 27.972C46.989 27.8251 47.5889 26.9683 47.442 26.0624C46.7809 22.1819 44.9447 18.6442 42.1415 15.8409C39.3382 13.0377 35.8005 11.2015 31.92 10.5404C31.0141 10.3935 30.1695 10.9934 30.0104 11.887C29.8512 12.7806 30.4388 13.6497 31.3447 13.7966Z" fill="#DDD0A4"/>
<path d="M57.9327 25.585C56.8432 19.1951 53.8319 13.3804 49.2047 8.75324C44.5775 4.12603 38.7628 1.11467 32.3729 0.0251944C31.4793 -0.133942 30.6346 0.478122 30.4755 1.37174C30.3286 2.27759 30.9284 3.12224 31.8343 3.28138C37.5387 4.24844 42.7413 6.95377 46.8788 11.0791C51.0164 15.2166 53.7095 20.4192 54.6765 26.1236C54.8112 26.9316 55.5089 27.4947 56.3046 27.4947C56.4026 27.4947 56.4882 27.4824 56.5862 27.4702C57.4798 27.3355 58.0919 26.4786 57.9327 25.585Z" fill="#DDD0A4"/>
</g>
<defs>
<clipPath id="clip0_1_876">
<rect width="58" height="58" fill="white"/>
</clipPath>
</defs>
</svg>
