<svg width="64" height="70" viewBox="0 0 64 70" fill="none" xmlns="http://www.w3.org/2000/svg">
<path d="M34.5625 62.75V68.5312C34.5625 68.8379 34.6876 69.132 34.9103 69.3488C35.133 69.5657 35.4351 69.6875 35.75 69.6875H61.875C62.1899 69.6875 62.492 69.5657 62.7147 69.3488C62.9374 69.132 63.0625 68.8379 63.0625 68.5312V62.75C63.0625 62.4433 62.9374 62.1492 62.7147 61.9324C62.492 61.7156 62.1899 61.5938 61.875 61.5938V47.7188C61.875 47.5801 61.8494 47.4426 61.7994 47.3128L59.3927 41.0638C58.965 39.964 58.2045 39.0166 57.2118 38.3468C56.2191 37.6769 55.041 37.3163 53.8333 37.3125H42.875V29.5925C44.7307 30.4506 46.847 30.6091 48.8156 30.0375C50.0564 30.3978 51.3664 30.4708 52.6413 30.2509C53.9162 30.0309 55.1207 29.524 56.1588 28.7706C57.1969 28.0172 58.0399 27.0381 58.6206 25.9113C59.2013 24.7845 59.5036 23.5413 59.5035 22.2806C59.5034 21.0199 59.2008 19.7767 58.62 18.65C58.0391 17.5233 57.1959 16.5444 56.1577 15.7911C55.1194 15.0379 53.9149 14.5312 52.6399 14.3114C51.365 14.0917 50.055 14.165 48.8143 14.5254C46.8462 13.9533 44.7302 14.1117 42.875 14.97V3.78125C42.8739 2.86161 42.4982 1.97994 41.8304 1.32966C41.1625 0.679372 40.257 0.313571 39.3125 0.3125H15.5625C14.618 0.313571 13.7125 0.679372 13.0446 1.32966C12.3768 1.97994 12.0011 2.86161 12 3.78125V29.2188H11.988C11.049 29.2153 10.1339 29.5069 9.37853 30.0501C8.62319 30.5932 8.06789 31.3591 7.79506 32.234L3.74005 45.0662C3.72072 45.1276 3.70662 45.1904 3.69789 45.2541L1.46094 61.5938H1.3125C0.997555 61.5938 0.69551 61.7156 0.472811 61.9324C0.250111 62.1492 0.125 62.4433 0.125 62.75V68.5312C0.125 68.8379 0.250111 69.132 0.472811 69.3488C0.69551 69.5657 0.997555 69.6875 1.3125 69.6875H27.4375C27.7524 69.6875 28.0545 69.5657 28.2772 69.3488C28.4999 69.132 28.625 68.8379 28.625 68.5312V62.75C28.6249 62.5064 28.5458 62.269 28.399 62.0717C28.2521 61.8745 28.045 61.7274 27.8073 61.6516L29.5207 55.8125H31.4985L35.0313 61.8315C34.8856 61.939 34.7675 62.0778 34.6862 62.2372C34.6049 62.3965 34.5625 62.5721 34.5625 62.75ZM60.6875 67.375H36.9375V63.9062H60.6875V67.375ZM51.1875 16.5C52.3618 16.5 53.5098 16.8391 54.4862 17.4743C55.4626 18.1096 56.2236 19.0125 56.673 20.0689C57.1224 21.1252 57.24 22.2877 57.0109 23.4091C56.7818 24.5306 56.2163 25.5607 55.3859 26.3692C54.5556 27.1777 53.4976 27.7283 52.3458 27.9514C51.1941 28.1745 50.0003 28.06 48.9153 27.6224C47.8304 27.1849 46.9031 26.4439 46.2506 25.4931C45.5982 24.5424 45.25 23.4247 45.25 22.2812C45.2518 20.7485 45.8779 19.279 46.991 18.1952C48.1041 17.1114 49.6133 16.5017 51.1875 16.5ZM45.2596 16.6146C43.7315 18.1254 42.875 20.1608 42.875 22.2812C42.875 24.4017 43.7315 26.4371 45.2596 27.9479C43.9163 27.6835 42.7083 26.9747 41.8405 25.9419C40.9727 24.909 40.4986 23.6157 40.4986 22.2812C40.4986 20.9468 40.9727 19.6535 41.8405 18.6206C42.7083 17.5878 43.9163 16.879 45.2596 16.6146ZM26.25 67.375H2.5V63.9062H26.25V67.375ZM25.3543 61.5938H3.85627L6.0383 45.6544L10.0644 32.914C10.2115 32.4492 10.5309 32.0542 10.9606 31.8061C11.3902 31.5579 11.8993 31.4742 12.3887 31.5714C12.8782 31.6685 13.3131 31.9394 13.6088 32.3314C13.9044 32.7235 14.0397 33.2086 13.9883 33.6924L12.0113 47.5598C11.9825 47.7631 12.0097 47.9702 12.0901 48.16C12.1706 48.3497 12.3013 48.5152 12.4691 48.6396C12.5237 48.68 17.9375 52.7425 17.9375 56.9689C17.9375 57.2756 18.0626 57.5696 18.2853 57.7865C18.508 58.0033 18.8101 58.1251 19.125 58.1251C19.4399 58.1251 19.742 58.0033 19.9647 57.7865C20.1874 57.5696 20.3125 57.2756 20.3125 56.9689C20.3113 56.5817 20.2798 56.1952 20.2182 55.8126H27.0507L25.3543 61.5938ZM31.1128 53.5H19.5149C18.1976 50.5399 15.5975 48.1742 14.4558 47.2323L16.344 33.9932C16.3455 33.9828 16.3468 33.9724 16.348 33.9618C16.4381 33.1742 16.3013 32.3778 15.9528 31.6617C15.6043 30.9455 15.058 30.338 14.375 29.907V3.78125C14.3754 3.4747 14.5006 3.1808 14.7232 2.96404C14.9458 2.74727 15.2477 2.62534 15.5625 2.625H20.7661L21.6254 4.29838C21.7241 4.49043 21.8757 4.65194 22.0632 4.76482C22.2508 4.8777 22.467 4.93749 22.6875 4.9375H32.1875C32.408 4.93749 32.6242 4.8777 32.8118 4.76482C32.9993 4.65194 33.1509 4.49043 33.2496 4.29838L34.1089 2.625H39.3125C39.6273 2.62534 39.9292 2.74727 40.1518 2.96404C40.3744 3.1808 40.4996 3.4747 40.5 3.78125V16.6246C38.9778 18.1344 38.125 20.1656 38.125 22.2812C38.125 24.3969 38.9778 26.4281 40.5 27.9379V37.3125H39.064L33.0738 24.9993C32.7062 24.2421 32.1072 23.614 31.3588 23.2009C30.6105 22.7879 29.7493 22.6101 28.8932 22.6919C30.655 21.363 34.5625 17.7535 34.5625 11.875C34.5625 11.6753 34.5094 11.4791 34.4084 11.3053C34.3073 11.1316 34.1618 10.9862 33.986 10.8835L28.0485 7.41477C27.8639 7.30694 27.6527 7.24999 27.4375 7.24999C27.2223 7.24999 27.0111 7.30694 26.8265 7.41477L20.889 10.8835C20.7141 10.9857 20.5692 11.13 20.4682 11.3026C20.3672 11.4752 20.3136 11.6702 20.3125 11.8688C20.3107 12.1791 20.3447 19.5104 26.8289 23.2745C26.8779 23.3027 26.929 23.3275 26.9816 23.3486C26.2117 23.8474 25.6331 24.5805 25.3364 25.4334C25.0397 26.2862 25.0416 27.2108 25.3417 28.0625H20.3125C19.9976 28.0625 19.6955 28.1843 19.4728 28.4012C19.2501 28.618 19.125 28.9121 19.125 29.2188V38.4688C19.125 38.7754 19.2501 39.0695 19.4728 39.2863C19.6955 39.5032 19.9976 39.625 20.3125 39.625H30.5203L31.5593 41.9375H20.3125C19.9976 41.9375 19.6955 42.0593 19.4728 42.2762C19.2501 42.493 19.125 42.7871 19.125 43.0938V47.7188C19.125 48.0254 19.2501 48.3195 19.4728 48.5363C19.6955 48.7532 19.9976 48.875 20.3125 48.875H31.5878L31.1128 53.5ZM27.4105 20.8878C23.6535 18.3234 22.8848 14.0915 22.7277 12.5062L27.4375 9.75458L32.1682 12.5183C31.8936 17.0806 28.7513 19.8895 27.4105 20.8878ZM29.4812 37.3125H21.5V30.375H26.364L29.4812 37.3125ZM31.8253 46.5625H21.5V44.25H32.0628L31.8253 46.5625ZM33.4069 54.4035L34.5566 43.2094C34.5768 43.012 34.5445 42.8129 34.4629 42.6312L27.6406 27.4467C27.4508 27.0236 27.4395 26.5449 27.6092 26.1138C27.7788 25.6827 28.1157 25.3338 28.5471 25.1425C28.9786 24.9512 29.4701 24.9327 29.9154 25.0911C30.3607 25.2496 30.7242 25.5721 30.9274 25.9892L40.6143 45.9013C40.7491 46.1784 40.9915 46.392 41.2881 46.4952C41.5847 46.5983 41.9113 46.5825 42.1959 46.4512C42.4805 46.3199 42.6999 46.0839 42.8059 45.7951C42.9118 45.5063 42.8955 45.1884 42.7607 44.9112L40.1883 39.625H43.3279L46.5622 45.9234C46.6312 46.0604 46.7274 46.1828 46.8452 46.2834C46.963 46.3841 47.1001 46.461 47.2486 46.5098C47.397 46.5586 47.554 46.5783 47.7103 46.5678C47.8667 46.5573 48.0194 46.5167 48.1595 46.4485C48.2997 46.3802 48.4246 46.2856 48.5271 46.1701C48.6295 46.0547 48.7075 45.9206 48.7564 45.7756C48.8054 45.6307 48.8244 45.4777 48.8124 45.3255C48.8004 45.1734 48.7575 45.0251 48.6863 44.8891L45.9839 39.625H49.2661L52.5004 45.9234C52.5694 46.0604 52.6656 46.1828 52.7834 46.2834C52.9012 46.3841 53.0383 46.461 53.1868 46.5098C53.3353 46.5586 53.4922 46.5783 53.6486 46.5678C53.8049 46.5573 53.9576 46.5167 54.0978 46.4485C54.2379 46.3802 54.3629 46.2856 54.4653 46.1701C54.5677 46.0547 54.6457 45.9206 54.6947 45.7756C54.7437 45.6307 54.7627 45.4777 54.7506 45.3255C54.7386 45.1734 54.6958 45.0251 54.6246 44.8891L51.9214 39.625H53.8333C54.558 39.6271 55.265 39.8435 55.8607 40.2453C56.4564 40.6472 56.9128 41.2157 57.1695 41.8756L59.5 47.9285V61.5938H37.6265L33.4069 54.4035Z" fill="black"/>
</svg>
